<svg width="173" height="44" viewBox="0 0 173 44" fill="none" xmlns="http://www.w3.org/2000/svg">
<path fill-rule="evenodd" clip-rule="evenodd" d="M35.9329 4.95071C35.892 4.96124 35.8067 4.99457 35.7434 5.0248C35.5956 5.09539 35.4237 5.25935 35.3483 5.40167C35.254 5.57979 35.252 5.59228 35.1204 6.8903C34.867 9.38803 34.7016 10.8149 34.5241 12.034C34.0652 15.1858 33.4929 16.9064 32.5264 18.0399C32.3583 18.2371 32.0642 18.5203 31.8641 18.6777C31.705 18.8028 31.3248 19.0555 31.1465 19.1545C30.2687 19.6421 29.0803 20.0139 27.4433 20.3131C25.9347 20.5889 24.0828 20.8133 20.4159 21.1647C19.2887 21.2727 19.2638 21.2766 19.0822 21.3684C18.9383 21.4413 18.771 21.6105 18.6985 21.7566C18.6239 21.907 18.6016 22.0004 18.6016 22.162C18.6016 22.3237 18.6239 22.417 18.6985 22.5674C18.7778 22.7272 18.9396 22.8861 19.1025 22.9641C19.1658 22.9944 19.2542 23.028 19.2989 23.0387C19.3436 23.0495 19.767 23.0945 20.2399 23.1389C23.6703 23.4606 25.4056 23.6582 26.8469 23.891C30.4922 24.4797 32.1382 25.3347 33.1399 27.1596C33.6633 28.113 34.0491 29.4087 34.3687 31.2865C34.6054 32.6771 34.8037 34.3008 35.1336 37.5497C35.1935 38.1398 35.2491 38.6541 35.2571 38.6927C35.2652 38.7313 35.2983 38.8167 35.3307 38.8825C35.4285 39.0808 35.5552 39.2074 35.7501 39.3017C35.8958 39.3721 35.9928 39.3942 36.1563 39.3942C36.321 39.3942 36.4161 39.3723 36.5693 39.299C36.7321 39.2212 36.894 39.0623 36.9734 38.9024C37.0043 38.8403 37.0385 38.7536 37.0495 38.7097C37.0605 38.6658 37.1094 38.2113 37.1581 37.6996C37.5102 34.0048 37.7329 32.1732 38.0128 30.6685C38.2789 29.2383 38.5909 28.2033 39.0066 27.3722C39.2187 26.9482 39.4052 26.6545 39.669 26.3288C39.7976 26.1701 40.1259 25.8391 40.2861 25.7067C41.3638 24.8158 42.9501 24.2697 45.675 23.8515C47.1057 23.632 48.7269 23.451 51.9983 23.1455C52.5121 23.0975 52.9691 23.0495 53.0138 23.0387C53.2602 22.9794 53.5056 22.7869 53.6144 22.5674C53.6973 22.4001 53.7154 22.3137 53.7078 22.1226C53.7026 21.9905 53.695 21.9453 53.6639 21.8632C53.5603 21.5891 53.328 21.3764 53.0409 21.2929C52.9703 21.2724 52.7128 21.2431 52.0321 21.1782C48.1208 20.8053 46.2869 20.5835 44.7272 20.2947C42.0089 19.7913 40.5142 19.081 39.5664 17.8423C38.9706 17.0637 38.5201 15.9648 38.1823 14.4663C37.8204 12.8612 37.576 10.984 37.1515 6.55137C37.1063 6.07986 37.0604 5.65819 37.0495 5.61433C36.9889 5.37211 36.7944 5.13345 36.5693 5.02527C36.506 4.99485 36.4179 4.96093 36.3735 4.9499C36.2716 4.92455 36.033 4.92499 35.9329 4.95071Z" fill="black"/>
<path fill-rule="evenodd" clip-rule="evenodd" d="M11.5542 0.0130385C11.5269 0.0200563 11.4701 0.0422793 11.4279 0.062429C11.3293 0.109489 11.2148 0.218797 11.1645 0.313679C11.1016 0.432424 11.1003 0.440753 11.0125 1.3061C10.8436 2.97125 10.7334 3.92253 10.615 4.73526C10.3091 6.83641 9.92753 7.98349 9.28323 8.73919C9.17118 8.87061 8.9751 9.05943 8.8417 9.16436C8.73564 9.24778 8.48216 9.4162 8.36329 9.48224C7.77812 9.80729 6.98582 10.0552 5.89447 10.2547C4.88874 10.4385 3.65416 10.5881 1.20958 10.8224C0.458081 10.8944 0.44148 10.8969 0.32045 10.9582C0.224477 11.0067 0.112988 11.1195 0.0646316 11.217C0.0148761 11.3173 0 11.3795 0 11.4872C0 11.595 0.0148761 11.6572 0.0646316 11.7575C0.117501 11.8641 0.22538 11.97 0.33399 12.022C0.37619 12.0421 0.435089 12.0645 0.464878 12.0717C0.494666 12.0789 0.776978 12.1089 1.09224 12.1385C3.37915 12.353 4.53603 12.4847 5.4969 12.6399C7.92708 13.0324 9.02443 13.6024 9.69225 14.8189C10.0412 15.4546 10.2984 16.3184 10.5115 17.5702C10.6692 18.4973 10.8014 19.5798 11.0213 21.7457C11.0613 22.1391 11.0983 22.482 11.1037 22.5077C11.1091 22.5334 11.1311 22.5904 11.1528 22.6342C11.218 22.7665 11.3024 22.8509 11.4324 22.9137C11.5295 22.9606 11.5941 22.9754 11.7032 22.9754C11.813 22.9754 11.8764 22.9608 11.9785 22.9119C12.087 22.86 12.1949 22.7541 12.2479 22.6475C12.2685 22.6061 12.2913 22.5483 12.2986 22.519C12.3059 22.4898 12.3385 22.1868 12.371 21.8456C12.6058 19.3824 12.7542 18.1614 12.9408 17.1582C13.1182 16.2047 13.3262 15.5148 13.6034 14.9607C13.7448 14.678 13.8691 14.4822 14.045 14.2651C14.1307 14.1593 14.3495 13.9387 14.4563 13.8504C15.1749 13.2564 16.2323 12.8924 18.049 12.6136C19.0027 12.4672 20.0835 12.3465 22.2645 12.1429C22.607 12.1109 22.9117 12.0789 22.9415 12.0717C23.1058 12.0322 23.2693 11.9038 23.3419 11.7575C23.3971 11.646 23.4092 11.5884 23.4042 11.461C23.4007 11.3729 23.3956 11.3428 23.3749 11.2881C23.3058 11.1053 23.151 10.9635 22.9595 10.9078C22.9125 10.8941 22.7408 10.8746 22.287 10.8314C19.6795 10.5828 18.4569 10.4349 17.4171 10.2424C15.6049 9.90674 14.6084 9.43323 13.9766 8.60746C13.5794 8.08835 13.279 7.35579 13.0538 6.3568C12.8126 5.28667 12.6496 4.03524 12.3666 1.08015C12.3365 0.765805 12.3059 0.484694 12.2986 0.455453C12.2583 0.293973 12.1286 0.134867 11.9785 0.062748C11.9363 0.0424654 11.8776 0.0198525 11.848 0.012498C11.78 -0.00439972 11.621 -0.00410733 11.5542 0.0130385Z" fill="black"/>
<path fill-rule="evenodd" clip-rule="evenodd" d="M20.1065 28.7279C20.0884 28.7326 20.0506 28.7474 20.0225 28.7608C19.957 28.7921 19.8807 28.8648 19.8473 28.9279C19.8055 29.0068 19.8046 29.0124 19.7463 29.5879C19.6339 30.6954 19.5606 31.3281 19.4819 31.8686C19.2784 33.2661 19.0246 34.029 18.5961 34.5316C18.5216 34.619 18.3912 34.7446 18.3024 34.8144C18.2319 34.8699 18.0633 34.9819 17.9842 35.0258C17.5951 35.242 17.0681 35.4069 16.3423 35.5395C15.6734 35.6618 14.8522 35.7613 13.2264 35.9171C12.7265 35.965 12.7155 35.9667 12.635 36.0075C12.5712 36.0398 12.497 36.1148 12.4649 36.1796C12.4318 36.2463 12.4219 36.2877 12.4219 36.3593C12.4219 36.431 12.4318 36.4724 12.4649 36.5391C12.5 36.61 12.5718 36.6804 12.644 36.715C12.6721 36.7284 12.7113 36.7433 12.7311 36.7481C12.7509 36.7528 12.9386 36.7728 13.1483 36.7925C14.6693 36.9351 15.4388 37.0227 16.0778 37.1259C17.6941 37.387 18.424 37.7661 18.8681 38.5752C19.1002 38.998 19.2713 39.5725 19.413 40.4051C19.5179 41.0217 19.6058 41.7416 19.7521 43.1822C19.7787 43.4438 19.8033 43.6719 19.8069 43.689C19.8105 43.7061 19.8251 43.744 19.8395 43.7731C19.8829 43.8611 19.939 43.9172 20.0255 43.959C20.0901 43.9902 20.1331 44 20.2056 44C20.2786 44 20.3208 43.9903 20.3887 43.9578C20.4609 43.9233 20.5327 43.8529 20.5679 43.782C20.5816 43.7544 20.5968 43.716 20.6016 43.6965C20.6065 43.6771 20.6282 43.4755 20.6498 43.2486C20.8059 41.6104 20.9046 40.7983 21.0287 40.1311C21.1467 39.4969 21.2851 39.038 21.4694 38.6695C21.5634 38.4815 21.6461 38.3513 21.7631 38.2069C21.8201 38.1365 21.9657 37.9898 22.0367 37.931C22.5146 37.536 23.2179 37.2939 24.4262 37.1085C25.0605 37.0111 25.7793 36.9309 27.2299 36.7954C27.4577 36.7741 27.6603 36.7528 27.6801 36.7481C27.7894 36.7218 27.8982 36.6364 27.9464 36.5391C27.9832 36.4649 27.9912 36.4266 27.9879 36.3419C27.9855 36.2833 27.9822 36.2633 27.9684 36.2269C27.9225 36.1053 27.8195 36.011 27.6921 35.974C27.6608 35.9649 27.5467 35.9519 27.2449 35.9231C25.5106 35.7578 24.6974 35.6594 24.0059 35.5314C22.8006 35.3082 22.1379 34.9932 21.7176 34.444C21.4534 34.0988 21.2537 33.6115 21.1039 32.9471C20.9435 32.2354 20.8351 31.4031 20.6468 29.4376C20.6268 29.2286 20.6065 29.0416 20.6016 29.0222C20.5748 28.9148 20.4885 28.8089 20.3887 28.761C20.3606 28.7475 20.3216 28.7324 20.3019 28.7276C20.2567 28.7163 20.1509 28.7165 20.1065 28.7279Z" fill="black"/>
<g clip-path="url(#clip0_14_1295)">
<path fill-rule="evenodd" clip-rule="evenodd" d="M86.3352 35.5529C86.3352 35.1123 85.9559 34.7339 85.5072 34.7339H84.5963C83.5419 34.7339 82.9524 33.4219 82.0761 31.3658C81.1999 29.3096 73.8828 12.1392 72.6285 9.18949C72.2403 8.27636 70.9686 8.28352 70.5633 9.18949C69.3144 11.9816 61.2532 31.2847 61.2274 31.3465L61.2273 31.3465L61.2265 31.3484C60.7857 32.3891 60.4071 33.2016 60.0029 33.9285C59.6427 34.4865 59.2733 34.7339 58.7625 34.7339H57.8475C57.3988 34.7339 57.051 35.1132 57.0234 35.5467C57.0234 35.5559 57.0234 35.5918 57.0236 35.6009C57.0234 35.6099 57.0234 35.619 57.0234 35.628C57.051 36.1157 57.4072 36.4679 57.8803 36.4679H65.0537C65.5035 36.4679 65.8558 36.0755 65.8558 35.628C65.8558 35.1832 65.4899 34.7377 65.0428 34.7339H63.8409C63.2037 34.7339 62.4106 34.1697 62.874 33.1429C62.9467 32.9818 63.0379 32.7624 63.1439 32.5069C63.1662 32.4534 63.1891 32.3982 63.2126 32.3417C63.2904 32.1792 63.371 32.0086 63.4534 31.8292L64.7627 28.7338C64.8856 28.4366 65.1797 28.2421 65.5064 28.2421H73.9491C74.2672 28.2421 74.5553 28.4267 74.6836 28.7126C74.6836 28.7126 76.1968 32.1078 76.6603 33.1346C77.1237 34.1614 76.3186 34.7339 75.6814 34.7339H74.4796C74.0325 34.7377 73.6667 35.1562 73.6667 35.6009C73.6667 36.0484 74.0172 36.4679 74.4671 36.4679H85.4796C85.9527 36.4679 86.3352 36.078 86.3352 35.6073C86.3352 35.5983 86.3351 35.5894 86.3347 35.5805C86.3351 35.5713 86.3352 35.5621 86.3352 35.5529ZM72.5746 26.3929C73.4105 26.3929 73.5809 25.9969 73.3118 25.2931L70.3591 18.5567C70.0754 17.9095 69.1355 17.9251 68.8743 18.5814L66.1934 25.3179C65.9109 26.1643 66.0814 26.3929 66.941 26.3929H72.5746Z" fill="black"/>
<path fill-rule="evenodd" clip-rule="evenodd" d="M147.021 18.0028C143.451 18.198 140.509 19.9398 140.127 22.0852C139.93 23.1838 140.285 24.2521 141.034 24.8184C141.225 24.9627 141.441 25.0771 141.672 25.1626C142.771 25.5692 144.215 25.3192 144.957 24.498C145.635 23.7472 145.761 22.8049 145.326 21.7432C145.163 21.347 145.142 21.1903 145.227 21.0175C145.572 20.3181 147.527 20.0017 148.532 20.4825C149.471 20.9315 149.929 21.9896 149.992 23.8521C150.031 24.9946 149.916 25.5577 148.809 25.6155C146.361 25.7432 144.268 26.2947 142.622 27.0231C139.717 28.3093 138.287 30.1657 138.671 33.0647C138.671 33.0647 138.677 33.1237 138.684 33.1612C138.69 33.1972 138.702 33.253 138.702 33.253C139.073 34.983 140.623 36.3491 142.754 36.9362C143.2 37.0592 143.67 37.1457 144.157 37.1907C144.414 37.2144 144.675 37.2267 144.941 37.2267C146.86 37.2267 148.581 36.9659 149.749 35.9537C149.776 35.9296 149.801 35.9072 149.825 35.8864C150.037 35.7012 150.129 35.6392 150.322 35.5434C150.419 35.4959 150.73 35.431 151.017 35.5234C151.135 35.5613 151.226 35.6497 151.312 35.7371C152.532 36.9691 155.225 37.1183 156.758 36.2765C157.543 35.872 158.337 35.2311 158.502 34.6592C158.72 33.9022 157.884 33.1553 157.189 33.4867C157.095 33.5315 157.02 33.5817 156.846 33.7154C156.253 34.1726 155.67 34.0809 155.5 33.5038C155.393 33.1385 155.386 32.8224 155.372 27.4164C155.368 25.8649 155.36 24.4344 155.355 23.9618L155.347 23.3154L155.346 23.3084C155.341 20.378 152.184 18.0038 148.29 18.0038L148.273 18.0039C147.823 17.9869 147.349 17.9849 147.021 18.0028ZM146.66 34.5596C148.087 34.7132 149.32 33.8109 149.852 32.2233L149.86 32.2007C149.88 32.1391 149.899 32.0789 149.912 32.0349C149.985 31.7748 149.989 31.4964 149.997 29.8925L149.998 29.6712L149.998 29.5445L150.007 27.8058L149.793 27.8076C148.689 27.817 147.697 27.9675 146.883 28.2387C146.43 28.3897 146.031 28.5781 145.699 28.8005C145.487 28.9417 145.303 29.0967 145.148 29.2644C144.452 30.0169 144.145 31.5035 144.42 32.7941C144.645 33.8527 145.365 34.4201 146.66 34.5596Z" fill="black"/>
<path d="M120.34 35.6156C120.34 36.0864 120.729 36.4681 121.209 36.4681H131.818C132.299 36.4681 132.688 36.0864 132.688 35.6156C132.688 35.146 132.301 34.7109 131.822 34.709H131.818C129.959 34.709 129.442 33.8392 129.406 33.3296L129.409 25.0952C129.409 24.6776 129.495 24.2595 129.706 23.8972C130.633 22.3093 131.613 22.1043 132.189 22.2605C132.385 22.3137 132.533 22.4605 132.678 22.6002C133.201 23.1031 133.931 23.4152 134.738 23.4152C135.447 23.4152 136.096 23.1741 136.599 22.7742C137.118 22.3607 137.48 21.7773 137.587 21.1153V21.115C137.607 20.9577 137.618 20.792 137.618 20.6178C137.618 20.6096 137.618 20.6015 137.618 20.5934C137.556 19.146 136.291 17.9902 134.738 17.9902C134.057 17.9902 133.379 18.1694 132.698 18.5404C132.017 18.9114 131.386 19.3936 130.806 19.9871C130.29 20.5154 129.853 21.0827 129.497 21.6892C129.462 21.748 129.368 21.7243 129.368 21.6565V18.748C129.368 18.3347 129.027 17.9997 128.606 17.9997C128.348 17.9997 128.091 18.0269 127.839 18.0809L122.268 19.2757C121.952 19.352 121.731 19.7229 121.731 20.0415C121.731 20.5436 122.146 20.9508 122.658 20.9508H122.686C123.204 20.9508 123.623 21.3618 123.623 21.8687V33.3142C123.597 33.8203 123.073 34.7351 121.195 34.7351C120.715 34.7351 120.34 35.1448 120.34 35.6156Z" fill="black"/>
<path d="M162.861 9.97423C162.583 10.0429 162.517 10.0617 162.461 10.0896C161.795 10.4187 161.789 11.3898 162.451 11.7295C162.535 11.7727 162.592 11.7921 162.801 11.8478C163.578 12.0552 163.765 12.2256 163.859 12.8149C163.879 12.9369 163.89 19.7319 163.886 24.568V33.3543C163.883 33.5717 163.772 33.8897 163.456 34.1686C163.106 34.495 162.492 34.7339 161.492 34.7339C161.015 34.7339 160.637 35.13 160.637 35.6009C160.637 36.0718 161.024 36.4679 161.502 36.4679H161.564H172.137C172.615 36.4679 173.002 36.0718 173.002 35.6009C173.002 35.13 172.624 34.7339 172.146 34.7339C170.231 34.7339 169.738 33.7716 169.736 33.276L169.727 10.0152C169.727 9.40747 169.609 8.68446 169.012 8.53352C168.932 8.51332 168.695 8.49977 168.635 8.51193C168.433 8.55254 166.937 8.93567 165.484 9.3074C164.398 9.58538 163.337 9.85699 162.861 9.97423Z" fill="black"/>
<path d="M108.616 15.1346C108.616 14.8535 108.693 14.5863 108.839 14.3507C109.008 14.0782 109.319 13.9378 109.634 13.8563L113.302 12.8964C113.827 12.7339 114.434 13.2216 114.407 13.7905V14.7043C114.406 14.793 114.409 14.8891 114.406 14.9827L114.402 16.3248V17.9812C114.402 18.2211 114.604 18.4168 114.848 18.4168H117.288C117.928 18.4168 118.409 18.7148 118.409 19.3379C118.409 19.9069 117.946 20.2591 117.339 20.2591H115.207C114.759 20.2591 114.4 20.5529 114.4 20.9924L114.412 33.3957C114.412 33.9702 114.799 34.4559 115.332 34.6145C115.451 34.65 115.578 34.6691 115.709 34.6691C116.078 34.6691 116.394 34.5171 116.648 34.275L117.006 33.9646C117.172 33.8292 117.442 33.8294 117.56 33.8552C118.073 33.9672 118.494 34.5249 118.331 35.0882C118.217 35.4832 117.804 35.9113 117.3 36.2715C116.815 36.5887 116.266 36.8378 115.671 37.002C115.175 37.1386 114.648 37.2164 114.102 37.2256C114.071 37.2261 114.039 37.2264 114.007 37.2265C114.002 37.2265 113.997 37.2265 113.992 37.2265C112.813 37.2265 111.722 36.9071 110.833 36.3649C109.47 35.5335 108.583 34.1783 108.583 32.6477L108.583 21.0406C108.583 20.5795 108.224 20.2591 107.755 20.2591H106.96C106.42 20.2591 105.988 19.8681 105.988 19.3379C105.988 18.7723 106.461 18.4168 107.037 18.4168H108.169C108.411 18.4168 108.619 18.2364 108.619 17.9984V15.5175L108.616 15.1346Z" fill="black"/>
<path fill-rule="evenodd" clip-rule="evenodd" d="M92.5381 18.5108C93.4108 18.1884 94.2207 17.9614 95.3368 17.9383C96.1244 17.922 96.5962 17.9954 97.3422 18.1528C98.0499 18.3023 99.1525 18.6325 99.9583 18.9364C100.196 19.0261 100.389 19.0267 100.389 19.0267C100.389 19.0267 100.549 19.0352 101.434 18.8247C101.813 18.7344 102.152 18.6567 102.186 18.6518C102.323 18.6325 102.488 18.6606 102.625 18.7266C102.799 18.8104 102.906 18.934 102.957 19.1104L102.976 19.1749L102.975 20.5184C102.974 22.3438 102.954 23.6247 102.926 23.7459C102.907 23.8252 102.868 23.9183 102.822 23.9919C102.776 24.065 102.713 24.141 102.621 24.2123C102.562 24.2578 102.555 24.2643 102.458 24.3115C102.361 24.3586 102.121 24.4154 101.96 24.3983C101.694 24.37 101.481 24.2475 101.339 24.0428C101.31 23.9996 101.249 23.8814 101.175 23.7246C101.038 23.4328 100.898 23.161 100.795 22.9879C100.237 22.0524 99.4912 21.367 98.5045 20.8822C98.3363 20.7996 97.9598 20.6345 97.8517 20.596C97.5458 20.4871 97.1085 20.4042 96.7033 20.3781C96.5135 20.366 96.0759 20.3726 95.8675 20.3908C95.1193 20.4561 94.5443 20.6394 94.104 20.953C93.6347 21.2871 93.3408 21.7296 93.2546 22.2319C93.2329 22.3583 93.2347 22.5853 93.2583 22.6936C93.3443 23.0877 93.622 23.4372 94.104 23.7581C94.4677 24.0002 95.1883 24.3646 95.855 24.6438C96.3046 24.8319 96.6265 24.9538 97.2132 25.1576C97.9167 25.4022 98.7937 25.7457 99.5009 26.0539C100.072 26.3026 100.428 26.4692 100.68 26.6052C101.51 27.0527 102.223 27.6288 102.833 28.3445C103.414 29.0266 103.775 29.825 103.899 30.7004C103.936 30.967 103.945 31.1016 103.945 31.44C103.945 31.769 103.939 31.8836 103.908 32.1503C103.792 33.1247 103.415 33.997 102.796 34.7189C102.448 35.126 102.046 35.4721 101.526 35.8125C100.331 36.5957 98.9361 37.111 97.138 37.2044C96.6914 37.2275 96.4787 37.2448 95.9929 37.1919C95.464 37.1344 95.0555 37.0564 94.2711 36.8632C93.3341 36.6324 92.7384 36.4445 92.0397 36.1595C91.5989 35.9797 91.4864 35.9445 91.3291 35.9375C91.3291 35.9375 91.2705 35.9339 91.2329 35.9333C91.0048 35.9294 90.8486 35.9861 90.674 36.0494C90.5794 36.0837 90.4794 36.12 90.3595 36.1497C90.2396 36.1794 90.1395 36.2132 90.0449 36.2453C89.8702 36.3045 89.714 36.3574 89.4861 36.366C89.4192 36.3685 89.3147 36.3659 89.3147 36.3659C89.3147 36.3659 89.1379 36.3642 89.0624 36.3437C88.8914 36.2973 88.7576 36.225 88.6542 36.1234C88.5486 36.0195 88.481 35.8958 88.4482 35.746C88.4337 35.6797 88.433 35.5949 88.4338 34.0081C88.4347 32.4479 88.4461 31.1737 88.4617 30.8972C88.4676 30.7924 88.472 30.7674 88.4974 30.6946C88.5426 30.5648 88.5865 30.4959 88.6879 30.3963C88.7885 30.2973 88.8594 30.2533 88.9874 30.2104C89.0974 30.1735 89.1966 30.158 89.3231 30.158C89.5781 30.158 89.7589 30.2274 89.9322 30.3918C90.03 30.4845 90.0803 30.5492 90.2044 30.7415C90.7741 31.624 91.4 32.2673 92.1886 32.7808C92.6464 33.0789 93.1424 33.3323 93.9869 33.6997C94.9272 34.1088 95.7442 34.3188 96.6783 34.3914C96.8579 34.4054 97.2044 34.4463 97.5327 34.3879C97.6284 34.3708 97.6824 34.3608 97.7751 34.3321C98.0167 34.2574 98.1886 34.1391 98.3441 34.0264C98.7583 33.7262 98.994 33.3371 99.0743 32.8206C99.0955 32.6845 99.0956 32.3673 99.0746 32.2714C98.9865 31.8699 98.6943 31.4903 98.1814 31.1109C97.8871 30.8931 97.5494 30.6933 97.115 30.4796C96.5878 30.2203 96.1105 30.0263 95.2407 29.7181C94.3396 29.3988 93.4048 29.0218 92.47 28.6008C92.1829 28.4715 92.0588 28.4113 91.8739 28.3117C90.996 27.8388 90.2033 27.185 89.5786 26.4189C89.3401 26.1263 89.1804 25.8832 89.0207 25.5694C88.791 25.1183 88.6456 24.6533 88.5714 24.1323C88.4981 23.6177 88.5059 23.0208 88.5925 22.5237C88.782 21.4352 89.3258 20.5303 90.2422 19.7781C90.8282 19.2971 91.6762 18.829 92.5381 18.5108Z" fill="black"/>
</g>
<defs>
<clipPath id="clip0_14_1295">
<rect width="115.977" height="28.7192" fill="black" transform="translate(57.0234 8.50732)"/>
</clipPath>
</defs>
</svg>
