<svg width="81" height="80" viewBox="0 0 81 80" fill="none" xmlns="http://www.w3.org/2000/svg">
<path d="M9.45996 1.28H0.209961L9.45996 10.53V1.28Z" fill="#244579"/>
<path d="M23.3301 15.14H14.0801L23.3301 24.39V15.14Z" fill="#244579"/>
<path d="M37.1899 29.01H27.9399L37.1899 38.26V29.01Z" fill="#244579"/>
<path d="M51.0601 42.87H41.8101L51.0601 52.12V42.87Z" fill="#244579"/>
<path d="M64.9299 56.74H55.6799L64.9299 65.99V56.74Z" fill="#244579"/>
<path d="M78.79 70.6H69.54L78.79 79.86V70.6Z" fill="#244579"/>
<path d="M37.49 0.980011H28.24L37.49 10.23V0.980011Z" fill="#244579"/>
<path d="M51.3501 14.85H42.1001L51.3501 24.1V14.85Z" fill="#244579"/>
<path d="M65.22 28.71H55.97L65.22 37.96V28.71Z" fill="#244579"/>
<path d="M79.0901 42.58H69.8401L79.0901 51.83V42.58Z" fill="#244579"/>
<path d="M65.51 0.690002H56.26L65.51 9.94V0.690002Z" fill="#244579"/>
<path d="M79.3799 14.55H70.1299L79.3799 23.8V14.55Z" fill="#244579"/>
<path d="M23.8799 0.720001H14.6299L23.8799 9.97V0.720001Z" fill="#244579"/>
<path d="M37.7498 14.59H28.4897L37.7498 23.84V14.59Z" fill="#244579"/>
<path d="M51.6099 28.46H42.3599L51.6099 37.71V28.46Z" fill="#244579"/>
<path d="M65.48 42.32H56.23L65.48 51.57V42.32Z" fill="#244579"/>
<path d="M79.3398 56.19H70.0898L79.3398 65.44V56.19Z" fill="#244579"/>
<path d="M51.5 0.830017H42.25L51.5 10.08V0.830017Z" fill="#244579"/>
<path d="M65.3701 14.7H56.1201L65.3701 23.95V14.7Z" fill="#244579"/>
<path d="M79.23 28.57H69.98L79.23 37.82V28.57Z" fill="#244579"/>
<path d="M80.02 0.0500183H70.76L80.02 9.30002V0.0500183Z" fill="#244579"/>
</svg>
